<svg version="1.1" id="icons" xmlns="http://www.w3.org/2000/svg" x="0" y="0" viewBox="0 0 128 128" style="enable-background:new 0 0 128 128" xml:space="preserve"><style>.st2{fill:#ffffff}</style><g id="row3"><g id="tree:1_2_"><path id="Path_8_" class="st2" d="M49.8 81.6c-10.7 13.5 6.7 46 6.8 46.4H34c0-.1 4.4-.6 2.5-12.8-2.2-14.6-1-25.5 3.8-32.5-3.4-2.7-15.7-12.9-16.8-24.2 1.4-.9 2.3-2.4 2.4-4.1l.3.1c-2.1 11.6 14.5 21 18.3 23 9.7-13.8 4.3-40.3 2.5-47.7.3 0 .6.1.9.1 1.8 0 3.5-.5 4.9-1.4 1 5.3 4.6 27.3 1.4 42.5 10.1-1.2 36.6-5.3 40.9-14.1 2.5-.1 4.8-.9 6.7-2.2-.4 12.6-37.8 20.9-49.7 23.1-.7 1.4-1.4 2.7-2.3 3.8z"/><path id="Path_7_" class="st2" d="M38 0zm0 0zm0 0zm77.7 35.6c-2.3 0-4.4.6-6.3 1.6-1.8-1.1-4-1.6-6.3-1.6-1.4 0-2.7.2-3.9.6-2-2.2-5-3.5-8.3-3.5-2.1 0-4 .5-5.7 1.5-1.2-1.8-3.2-2.9-5.6-2.9-3.2 0-5.9 2.1-6.4 4.9-3 .8-5.3 3.4-5.3 6.4v.3c-2 .7-3.4 2.5-3.4 4.6-4.7.1-8.5 3.7-8.5 8.1 0 4.5 4 8.2 8.8 8.2 2.6 0 4.9-1.1 6.6-2.7 1.9 1.2 4.2 1.8 6.7 1.8 3.2 0 6.2-1.2 8.4-3.1 1.3.5 2.7.7 4.2.7h.6c2.5-.1 4.8-.9 6.7-2.2.3-.3.7-.5 1-.8 1.3.5 2.7.7 4.2.7 2.3 0 4.5-.6 6.3-1.6 1.8 1.1 4 1.6 6.3 1.6 6.8 0 12.3-5.1 12.3-11.4-.1-6.1-5.6-11.2-12.4-11.2zM82.1 41s.1 0 0 0zM62 15.6c-1.6 0-3.2.4-4.5 1.2-1.3-.8-2.9-1.2-4.5-1.2-1 0-1.9.2-2.8.4-1.4-1.6-3.6-2.5-6-2.5-1.5 0-2.9.4-4.1 1.1-.8-1.3-2.3-2.1-4-2.1-2.3 0-4.2 1.5-4.6 3.5-2.2.6-3.8 2.4-3.8 4.6v.2c-1.4.5-2.5 1.8-2.5 3.3-3.4.1-6.1 2.7-6.1 5.8 0 3.2 2.8 5.9 6.3 5.9 1.9 0 3.5-.8 4.7-2 1.4.8 3 1.3 4.8 1.3 2.3 0 4.4-.8 6-2.2.7.2 1.4.4 2.1.5.3 0 .6.1.9.1 1.8 0 3.5-.5 4.9-1.4.4-.3.7-.5 1.1-.8.9.3 2 .5 3 .5 1.7 0 3.2-.4 4.5-1.2 1.3.8 2.9 1.2 4.5 1.2 4.9 0 8.8-3.6 8.8-8.1.1-4.4-3.8-8.1-8.7-8.1zm-24 3.9zm5.8 37.7c0 3.8-3.3 6.9-7.4 6.9-2.6 0-4.9-1.3-6.2-3.2-.6.1-1.2.2-1.8.2-2.7 0-5.1-1.4-6.4-3.5v.6c-.1 1.7-1 3.1-2.4 4.1-1 .7-2.2 1.1-3.4 1.1-1 0-1.9-.2-2.6-.6-1.4 1.7-3.5 2.8-6 2.8-4.1 0-7.4-3.1-7.4-6.9 0-3.8 3.3-6.9 7.4-6.9 1.9 0 3.7.7 5.1 1.9.4-.3.9-.6 1.4-.8-.6-.9-.9-2-.9-3.1 0-3.6 3.2-6.5 7-6.5 3 0 5.6 1.8 6.6 4.2.5-.1 1.1-.2 1.6-.2 2.6 0 4.9 1.3 6.2 3.2.6-.1 1.2-.2 1.8-.2 4 0 7.4 3.1 7.4 6.9z"/></g></g></svg>
